<svg xmlns="http://www.w3.org/2000/svg" xmlns:xlink="http://www.w3.org/1999/xlink" width="500" zoomAndPan="magnify" viewBox="0 0 375 112.499997" height="150" preserveAspectRatio="xMidYMid meet" version="1.0"><defs><g/><clipPath id="0897884906"><path d="M 12.03125 19 L 71.765625 19 L 71.765625 93.238281 L 12.03125 93.238281 Z M 12.03125 19 " clip-rule="nonzero"/></clipPath><clipPath id="9e56612536"><path d="M 43 13.34375 L 61 13.34375 L 61 23 L 43 23 Z M 43 13.34375 " clip-rule="nonzero"/></clipPath></defs><g clip-path="url(#0897884906)"><path fill="#ffffff" d="M 71.738281 55.867188 C 71.445312 55.746094 71 56.085938 69.917969 57.3125 C 69.371094 57.914062 68.667969 58.746094 67.648438 59.699219 C 67.132812 60.171875 66.535156 60.667969 65.816406 61.128906 C 65.097656 61.585938 64.257812 62 63.257812 62.277344 C 60.972656 62.9375 58.339844 62.8125 55.800781 61.972656 C 53.253906 61.125 50.777344 59.527344 48.445312 57.414062 C 43.765625 53.125 39.210938 47.296875 36.128906 39.449219 C 35.378906 37.59375 34.761719 35.683594 34.230469 33.746094 L 34.027344 33.023438 C 33.960938 32.777344 33.90625 32.535156 33.84375 32.289062 C 33.730469 31.800781 33.597656 31.316406 33.492188 30.824219 C 33.285156 29.84375 33.039062 28.832031 32.917969 27.933594 C 32.789062 27.027344 32.777344 26.195312 32.945312 25.503906 C 33.109375 24.78125 33.488281 24.046875 33.832031 23.761719 C 33.917969 23.691406 33.992188 23.632812 34.0625 23.605469 C 34.09375 23.582031 34.128906 23.585938 34.15625 23.566406 C 34.191406 23.566406 34.21875 23.542969 34.253906 23.550781 C 34.269531 23.550781 34.285156 23.542969 34.304688 23.539062 L 34.410156 23.539062 C 34.480469 23.53125 34.550781 23.535156 34.617188 23.539062 C 34.75 23.542969 34.882812 23.570312 35.015625 23.601562 C 35.539062 23.730469 36.121094 24.117188 36.675781 24.695312 C 37.234375 25.269531 37.753906 26.007812 38.230469 26.808594 C 38.707031 27.613281 39.140625 28.480469 39.585938 29.394531 L 39.925781 30.09375 L 40.230469 30.753906 C 40.441406 31.1875 40.625 31.640625 40.816406 32.089844 C 41.011719 32.535156 41.171875 33 41.351562 33.457031 C 41.519531 33.917969 41.679688 34.382812 41.84375 34.851562 C 43.097656 38.609375 43.945312 42.59375 44.980469 46.644531 C 45.082031 47.042969 45.191406 47.472656 45.320312 47.925781 C 45.386719 48.152344 45.449219 48.382812 45.515625 48.617188 C 45.550781 48.734375 45.582031 48.855469 45.617188 48.972656 L 45.648438 49.0625 L 45.6875 49.1875 L 45.769531 49.4375 C 45.882812 49.769531 45.996094 50.109375 46.109375 50.445312 L 46.195312 50.695312 C 46.226562 50.78125 46.242188 50.851562 46.304688 50.96875 C 46.414062 51.175781 46.53125 51.371094 46.679688 51.550781 C 46.964844 51.90625 47.339844 52.195312 47.75 52.378906 C 47.957031 52.472656 48.167969 52.539062 48.390625 52.589844 C 48.496094 52.617188 48.613281 52.625 48.726562 52.636719 C 48.839844 52.644531 48.953125 52.65625 49.0625 52.664062 C 49.503906 52.726562 49.953125 52.695312 50.367188 52.621094 C 50.480469 52.601562 50.539062 52.585938 50.617188 52.566406 C 50.6875 52.546875 50.753906 52.527344 50.824219 52.507812 C 50.960938 52.46875 51.089844 52.421875 51.207031 52.378906 C 51.691406 52.199219 52.15625 51.964844 52.519531 51.707031 C 53.253906 51.191406 53.652344 50.589844 53.691406 50.089844 C 53.742188 49.378906 53.414062 49.058594 52.972656 48.929688 C 52.523438 48.796875 51.929688 48.839844 51.238281 48.859375 C 51.066406 48.867188 50.890625 48.871094 50.707031 48.871094 C 50.519531 48.871094 50.296875 48.878906 50.128906 48.867188 C 50.011719 48.863281 50.03125 48.84375 50.007812 48.832031 C 49.996094 48.820312 49.984375 48.804688 49.972656 48.789062 C 49.957031 48.761719 49.945312 48.738281 49.941406 48.714844 C 49.9375 48.691406 49.941406 48.664062 49.949219 48.648438 L 49.957031 48.636719 C 49.957031 48.628906 49.960938 48.644531 49.957031 48.621094 L 49.945312 48.558594 L 49.890625 48.316406 L 49.769531 47.792969 C 49.699219 47.515625 49.625 47.238281 49.554688 46.964844 C 49.089844 45.207031 48.652344 43.550781 48.359375 42.449219 C 47.34375 38.601562 46.355469 34.878906 44.855469 31.25 C 44.480469 30.34375 44.070312 29.449219 43.625 28.5625 L 43.460938 28.230469 L 43.300781 27.921875 L 42.976562 27.285156 C 42.753906 26.859375 42.519531 26.421875 42.273438 25.984375 C 41.78125 25.105469 41.238281 24.214844 40.570312 23.339844 C 39.898438 22.46875 39.105469 21.589844 38 20.871094 C 37.464844 20.523438 36.847656 20.222656 36.167969 20.035156 C 35.492188 19.84375 34.753906 19.777344 34.046875 19.84375 L 33.914062 19.855469 C 33.867188 19.859375 33.808594 19.871094 33.757812 19.878906 L 33.445312 19.9375 C 33.238281 19.988281 33.027344 20.042969 32.832031 20.125 C 32.429688 20.277344 32.066406 20.496094 31.738281 20.738281 C 31.101562 21.234375 30.640625 21.828125 30.304688 22.421875 C 29.96875 23.019531 29.730469 23.621094 29.566406 24.234375 C 29.480469 24.53125 29.410156 24.875 29.363281 25.191406 C 29.316406 25.511719 29.285156 25.835938 29.277344 26.148438 C 29.234375 27.410156 29.441406 28.554688 29.664062 29.609375 C 30.132812 31.664062 30.652344 33.679688 31.273438 35.65625 C 31.902344 37.628906 32.617188 39.546875 33.402344 41.371094 C 34.546875 43.996094 35.898438 46.535156 37.457031 48.9375 C 37.953125 49.699219 38.480469 50.453125 39.027344 51.199219 C 38.726562 51.085938 38.421875 50.972656 38.109375 50.875 C 36.734375 50.441406 35.230469 50.164062 33.683594 50.121094 C 33.617188 50.117188 33.554688 50.117188 33.488281 50.117188 C 33.324219 49.667969 33.121094 49.328125 32.875 49.152344 C 32.460938 48.84375 32.152344 48.902344 31.921875 49.195312 C 31.753906 49.410156 31.632812 49.753906 31.53125 50.183594 C 30.671875 50.261719 29.800781 50.394531 28.941406 50.582031 C 28.148438 50.746094 27.359375 50.949219 26.566406 51.164062 C 26.371094 51.21875 26.171875 51.277344 25.972656 51.332031 L 25.675781 51.417969 L 25.363281 51.515625 C 25.15625 51.582031 24.945312 51.648438 24.734375 51.714844 C 24.523438 51.785156 24.320312 51.871094 24.113281 51.949219 C 22.457031 52.585938 20.828125 53.441406 19.292969 54.578125 C 17.835938 55.652344 16.496094 56.925781 15.398438 58.425781 C 14.3125 59.933594 13.503906 61.707031 13.1875 63.613281 L 13.125 63.96875 L 13.089844 64.34375 C 13.0625 64.59375 13.0625 64.84375 13.058594 65.09375 C 13.066406 65.59375 13.109375 66.089844 13.195312 66.582031 C 13.292969 67.074219 13.410156 67.5625 13.597656 68.035156 C 13.675781 68.273438 13.789062 68.503906 13.890625 68.738281 C 14.011719 68.964844 14.121094 69.195312 14.261719 69.414062 C 14.6875 70.117188 15.253906 70.753906 15.925781 71.28125 C 15.882812 71.320312 15.839844 71.359375 15.792969 71.402344 C 15.5 71.664062 15.113281 71.898438 14.753906 72.105469 C 14.617188 72.167969 14.488281 72.246094 14.347656 72.308594 C 13.847656 72.546875 13.242188 72.773438 12.664062 72.960938 C 12.59375 72.996094 12.03125 73.203125 12.027344 73.515625 C 12.03125 73.871094 12.148438 73.984375 12.753906 74.113281 C 13.449219 74.246094 14.324219 74.273438 15.488281 73.90625 C 16.042969 73.730469 16.601562 73.527344 17.140625 73.246094 C 17.546875 73.035156 17.9375 72.773438 18.285156 72.457031 C 18.660156 72.558594 19.042969 72.636719 19.421875 72.679688 C 20.449219 72.792969 21.472656 72.714844 22.445312 72.476562 C 22.9375 72.359375 23.410156 72.203125 23.875 72.007812 C 24.105469 71.914062 24.332031 71.804688 24.558594 71.6875 C 24.777344 71.578125 24.976562 71.457031 25.1875 71.339844 C 26.828125 70.367188 28.257812 69.0625 29.386719 67.574219 C 30.527344 66.089844 31.410156 64.457031 32.082031 62.761719 C 32.765625 61.070312 33.234375 59.320312 33.566406 57.550781 C 33.691406 56.859375 33.816406 56.046875 33.886719 55.199219 C 33.957031 54.347656 33.980469 53.464844 33.9375 52.644531 C 33.925781 52.46875 33.914062 52.296875 33.898438 52.128906 C 34.144531 52.132812 34.390625 52.144531 34.636719 52.164062 C 35.152344 52.207031 35.667969 52.261719 36.179688 52.363281 C 37.207031 52.546875 38.214844 52.859375 39.183594 53.25 C 40.144531 53.664062 41.070312 54.15625 41.890625 54.785156 C 41.929688 54.8125 41.96875 54.84375 42.007812 54.878906 C 42.132812 55.015625 42.253906 55.152344 42.378906 55.289062 C 42.824219 55.804688 43.316406 56.273438 43.789062 56.769531 C 44.257812 57.261719 44.761719 57.730469 45.261719 58.203125 C 46.273438 59.136719 47.335938 60.039062 48.472656 60.855469 C 50.199219 62.109375 52.105469 63.195312 54.148438 63.910156 C 53.824219 64.289062 53.585938 64.742188 53.46875 65.210938 C 53.316406 65.808594 53.339844 66.394531 53.457031 66.917969 C 53.574219 67.445312 53.785156 67.921875 54.066406 68.351562 C 54.210938 68.566406 54.367188 68.769531 54.550781 68.957031 C 54.730469 69.148438 54.945312 69.328125 55.128906 69.464844 C 55.433594 69.691406 55.8125 69.910156 56.207031 70.0625 C 56.601562 70.214844 57.011719 70.304688 57.386719 70.328125 C 57.519531 70.335938 57.648438 70.335938 57.769531 70.324219 C 57.683594 70.5625 57.589844 70.796875 57.496094 71.027344 C 57.253906 71.578125 56.988281 72.117188 56.679688 72.601562 C 56.246094 73.304688 55.730469 73.941406 55.132812 74.480469 C 54.585938 74.96875 53.953125 75.382812 53.257812 75.671875 C 52.558594 75.960938 51.792969 76.117188 51.003906 76.15625 C 49.410156 76.21875 47.753906 75.804688 46.394531 75.039062 C 46.226562 74.953125 45.492188 74.539062 44.871094 74.035156 C 44.714844 73.90625 44.566406 73.777344 44.425781 73.65625 C 44.292969 73.527344 44.164062 73.417969 44.054688 73.316406 C 43.84375 73.109375 43.671875 72.984375 43.597656 73.039062 C 43.511719 73.097656 43.460938 73.183594 43.460938 73.320312 C 43.464844 73.457031 43.5 73.664062 43.632812 73.925781 C 43.699219 74.058594 43.78125 74.214844 43.898438 74.378906 C 43.957031 74.460938 44.015625 74.550781 44.082031 74.648438 C 44.152344 74.738281 44.234375 74.832031 44.316406 74.933594 C 44.660156 75.332031 45.136719 75.796875 45.8125 76.261719 C 46.03125 76.414062 46.261719 76.558594 46.5 76.691406 C 46.128906 76.714844 45.757812 76.789062 45.375 76.847656 C 45.15625 76.898438 44.9375 76.960938 44.714844 77.019531 C 44.605469 77.046875 44.492188 77.074219 44.382812 77.113281 C 44.269531 77.152344 44.164062 77.191406 44.050781 77.234375 C 43.832031 77.320312 43.597656 77.386719 43.382812 77.496094 C 43.167969 77.601562 42.945312 77.707031 42.71875 77.816406 C 42.289062 78.058594 41.835938 78.308594 41.410156 78.617188 C 41.222656 78.746094 41.039062 78.886719 40.855469 79.027344 L 39.859375 78.613281 C 39.511719 78.464844 39.164062 78.3125 38.816406 78.152344 C 38.125 77.828125 37.441406 77.488281 36.761719 77.132812 C 35.402344 76.421875 34.066406 75.648438 32.71875 74.871094 C 32.375 74.675781 32.066406 74.480469 31.644531 74.269531 C 31.4375 74.164062 31.207031 74.0625 30.949219 73.980469 C 30.820312 73.9375 30.6875 73.90625 30.542969 73.878906 C 30.472656 73.863281 30.402344 73.851562 30.324219 73.84375 L 30.152344 73.824219 C 29.921875 73.808594 29.632812 73.789062 29.292969 73.84375 C 28.953125 73.898438 28.5625 74.054688 28.265625 74.304688 C 27.957031 74.550781 27.757812 74.851562 27.621094 75.125 C 27.546875 75.265625 27.507812 75.394531 27.453125 75.53125 C 27.414062 75.691406 27.359375 75.84375 27.34375 76.015625 C 27.339844 76.066406 27.335938 76.113281 27.332031 76.167969 C 27.238281 76.148438 27.144531 76.128906 27.046875 76.117188 C 26.839844 76.089844 26.621094 76.089844 26.410156 76.113281 C 26.191406 76.140625 25.976562 76.191406 25.761719 76.28125 C 25.550781 76.371094 25.320312 76.511719 25.144531 76.6875 C 24.964844 76.859375 24.824219 77.066406 24.726562 77.289062 C 24.632812 77.507812 24.582031 77.757812 24.574219 77.96875 C 24.5625 78.222656 24.597656 78.457031 24.65625 78.679688 C 24.617188 78.667969 24.570312 78.660156 24.53125 78.652344 C 24.410156 78.628906 24.292969 78.617188 24.179688 78.613281 C 23.949219 78.605469 23.730469 78.628906 23.503906 78.675781 C 23.445312 78.6875 23.398438 78.699219 23.332031 78.71875 C 23.265625 78.738281 23.191406 78.765625 23.125 78.789062 C 22.988281 78.839844 22.855469 78.902344 22.730469 78.980469 C 22.585938 79.078125 22.445312 79.183594 22.335938 79.320312 C 22.222656 79.449219 22.136719 79.605469 22.078125 79.765625 C 22.046875 79.890625 22.003906 80.019531 21.984375 80.148438 L 21.945312 80.539062 C 21.945312 80.785156 21.964844 81 22.023438 81.210938 C 22.132812 81.628906 22.316406 81.996094 22.523438 82.300781 C 22.90625 82.871094 23.351562 83.308594 23.78125 83.707031 C 23.753906 83.707031 23.726562 83.707031 23.699219 83.710938 L 23.511719 83.730469 L 23.410156 83.742188 L 23.261719 83.765625 C 22.871094 83.832031 22.496094 83.976562 22.207031 84.226562 C 21.617188 84.726562 21.441406 85.617188 21.730469 86.382812 C 21.765625 86.476562 21.804688 86.5625 21.851562 86.652344 C 21.898438 86.738281 21.960938 86.84375 21.996094 86.898438 C 22.089844 87.03125 22.183594 87.152344 22.28125 87.257812 C 22.472656 87.46875 22.664062 87.640625 22.84375 87.789062 C 23.210938 88.089844 23.574219 88.402344 23.964844 88.679688 C 24.34375 88.972656 24.75 89.222656 25.140625 89.484375 C 25.339844 89.601562 25.542969 89.71875 25.738281 89.835938 C 25.9375 89.957031 26.132812 90.066406 26.332031 90.164062 C 26.898438 90.46875 27.480469 90.742188 28.0625 90.992188 C 30.203125 91.929688 32.671875 92.605469 34.894531 93.089844 C 35.167969 93.15625 37.296875 93.542969 37.335938 93.285156 C 37.386719 92.984375 36.980469 92.808594 35.058594 92.136719 C 33.960938 91.746094 32.765625 91.328125 31.425781 90.796875 C 30.753906 90.535156 30.054688 90.230469 29.308594 89.894531 C 28.574219 89.539062 27.792969 89.152344 26.992188 88.675781 C 26.242188 88.214844 25.507812 87.722656 24.851562 87.152344 C 24.679688 87.015625 24.519531 86.867188 24.359375 86.71875 C 24.203125 86.570312 24.035156 86.421875 23.890625 86.277344 C 23.789062 86.171875 23.457031 85.738281 23.765625 85.523438 C 24.195312 85.230469 25.78125 86.019531 26.761719 86.464844 C 27.359375 86.738281 28.386719 87.300781 29.011719 86.746094 C 29.742188 86.101562 29.09375 85.378906 28.515625 84.921875 C 27.730469 84.304688 26.90625 83.738281 26.128906 83.113281 L 25.785156 82.832031 C 25.664062 82.738281 25.542969 82.644531 25.421875 82.546875 C 25.183594 82.363281 24.957031 82.191406 24.734375 82.007812 C 24.394531 81.722656 24.074219 81.414062 23.867188 81.105469 C 23.71875 80.871094 23.554688 80.378906 23.921875 80.222656 C 24.261719 80.078125 24.53125 80.230469 24.847656 80.355469 C 25.027344 80.425781 25.207031 80.507812 25.390625 80.589844 C 25.757812 80.757812 26.132812 80.933594 26.515625 81.117188 C 27.277344 81.488281 28.070312 81.828125 28.816406 82.117188 C 29.109375 82.230469 31.121094 82.886719 30.539062 82.007812 C 30.472656 81.90625 30.367188 81.785156 30.21875 81.628906 C 30.144531 81.554688 30.0625 81.472656 29.964844 81.378906 C 29.914062 81.332031 29.859375 81.28125 29.796875 81.226562 C 29.734375 81.179688 29.671875 81.128906 29.601562 81.074219 C 29.304688 80.84375 28.984375 80.609375 28.640625 80.375 C 28.304688 80.152344 27.949219 79.914062 27.566406 79.664062 C 27.1875 79.40625 26.789062 79.152344 26.527344 78.875 C 26.457031 78.804688 26.398438 78.734375 26.351562 78.660156 C 26.296875 78.582031 26.273438 78.53125 26.242188 78.457031 C 26.1875 78.316406 26.171875 78.152344 26.195312 78.050781 C 26.214844 77.980469 26.257812 77.921875 26.316406 77.898438 C 26.363281 77.875 26.507812 77.835938 26.644531 77.851562 C 26.917969 77.867188 27.320312 78.074219 27.816406 78.375 C 28.535156 78.8125 29.273438 79.222656 30.011719 79.625 C 30.652344 79.972656 31.417969 80.460938 32.164062 80.222656 C 33.097656 79.929688 31.9375 78.820312 31.574219 78.480469 C 30.851562 77.796875 29.84375 77.4375 29.484375 76.425781 C 29.4375 76.296875 29.429688 76.167969 29.496094 76.0625 C 29.652344 75.824219 30.070312 75.921875 30.285156 75.992188 C 30.726562 76.132812 31.144531 76.347656 31.550781 76.570312 C 31.863281 76.738281 32.175781 76.90625 32.488281 77.078125 C 33.742188 77.75 35.007812 78.417969 36.394531 79.066406 C 37.070312 79.382812 37.769531 79.695312 38.492188 79.992188 C 39.222656 80.289062 39.945312 80.558594 40.675781 80.835938 C 42.140625 81.378906 43.617188 81.886719 45.035156 82.3125 C 46.058594 82.621094 47.089844 82.902344 48.132812 83.140625 C 50.039062 83.578125 52.121094 83.890625 54.1875 83.914062 C 56.25 83.957031 58.320312 83.839844 60.253906 83.453125 C 60.488281 83.40625 61.53125 83.183594 62.453125 82.75 C 62.910156 82.535156 63.332031 82.257812 63.582031 81.976562 C 63.839844 81.699219 63.890625 81.445312 63.832031 81.429688 C 63.667969 81.375 63.550781 81.5 63.054688 81.75 C 62.554688 81.996094 61.605469 82.335938 59.929688 82.53125 C 58.011719 82.75 55.871094 82.757812 53.441406 82.542969 C 51.027344 82.335938 48.339844 81.707031 45.265625 80.683594 C 44.472656 80.417969 43.6875 80.132812 42.902344 79.835938 C 42.941406 79.808594 42.976562 79.777344 43.007812 79.75 L 43.464844 79.429688 C 43.613281 79.320312 43.777344 79.238281 43.933594 79.136719 C 44.246094 78.933594 44.578125 78.792969 44.90625 78.625 C 45.570312 78.347656 46.253906 78.101562 46.953125 78 C 47.039062 77.988281 47.265625 77.917969 47.566406 77.894531 C 47.714844 77.875 47.882812 77.851562 48.058594 77.828125 C 48.234375 77.800781 48.421875 77.808594 48.601562 77.792969 C 48.785156 77.785156 48.96875 77.757812 49.140625 77.753906 C 49.167969 77.753906 49.195312 77.753906 49.226562 77.753906 C 50.023438 77.933594 50.882812 78.023438 51.804688 77.96875 C 52.113281 77.96875 52.425781 77.902344 52.738281 77.863281 C 52.898438 77.847656 53.054688 77.800781 53.214844 77.761719 C 53.375 77.722656 53.535156 77.679688 53.695312 77.640625 C 53.851562 77.585938 54.011719 77.527344 54.171875 77.472656 L 54.410156 77.386719 C 54.492188 77.351562 54.566406 77.3125 54.644531 77.277344 C 54.800781 77.203125 54.957031 77.128906 55.117188 77.054688 C 55.269531 76.96875 55.417969 76.875 55.570312 76.785156 L 55.800781 76.648438 L 56.019531 76.492188 C 56.164062 76.386719 56.3125 76.28125 56.457031 76.167969 C 56.734375 75.933594 57.023438 75.699219 57.277344 75.425781 C 57.550781 75.164062 57.789062 74.871094 58.039062 74.578125 C 58.269531 74.273438 58.507812 73.964844 58.71875 73.632812 C 59.125 73.003906 59.484375 72.347656 59.785156 71.671875 C 59.941406 71.339844 60.070312 70.988281 60.207031 70.648438 C 60.328125 70.308594 60.449219 69.957031 60.554688 69.589844 C 60.765625 68.859375 60.917969 68.046875 60.882812 67.179688 C 60.851562 66.378906 60.648438 65.566406 60.226562 64.8125 C 60.238281 64.8125 60.246094 64.8125 60.257812 64.8125 C 61.652344 64.726562 63.03125 64.464844 64.304688 63.949219 C 64.621094 63.832031 65.464844 63.46875 66.429688 62.816406 C 66.902344 62.484375 67.410156 62.085938 67.886719 61.632812 C 68.363281 61.175781 68.820312 60.675781 69.234375 60.160156 C 70.070312 59.132812 70.734375 58.066406 71.183594 57.265625 C 71.628906 56.460938 71.859375 55.914062 71.738281 55.867188 Z M 30.027344 59.480469 C 29.21875 62.472656 27.914062 65.140625 25.972656 67.15625 C 25.484375 67.65625 24.960938 68.109375 24.402344 68.519531 L 23.96875 68.8125 C 23.828125 68.910156 23.671875 68.992188 23.523438 69.082031 L 23.304688 69.214844 L 23.085938 69.324219 C 22.941406 69.402344 22.789062 69.460938 22.640625 69.53125 C 21.429688 70.027344 20.03125 70.207031 18.804688 69.84375 C 18.507812 69.75 18.21875 69.644531 17.953125 69.492188 C 17.683594 69.347656 17.4375 69.164062 17.199219 68.957031 C 16.964844 68.746094 16.757812 68.5 16.5625 68.238281 C 16.378906 67.964844 16.199219 67.679688 16.066406 67.367188 C 15.78125 66.75 15.617188 66.054688 15.558594 65.355469 C 15.535156 65.003906 15.535156 64.648438 15.570312 64.300781 C 15.585938 64.125 15.628906 63.9375 15.65625 63.757812 C 15.691406 63.578125 15.703125 63.390625 15.757812 63.214844 C 16.113281 61.765625 16.839844 60.394531 17.78125 59.1875 C 18.722656 57.972656 19.890625 56.9375 21.113281 56.066406 C 21.992188 55.425781 22.945312 54.890625 23.925781 54.417969 C 24.414062 54.175781 24.921875 53.980469 25.421875 53.78125 L 26.191406 53.523438 C 26.453125 53.4375 26.734375 53.355469 27.003906 53.273438 C 28.386719 52.859375 29.785156 52.496094 31.203125 52.289062 C 31.066406 53.402344 30.933594 54.664062 30.75 55.859375 C 30.546875 57.285156 30.261719 58.613281 30.027344 59.480469 Z M 57.183594 67.171875 C 56.832031 66.964844 56.675781 66.820312 56.550781 66.65625 C 56.347656 66.390625 56.28125 66.066406 56.300781 65.917969 C 56.324219 65.765625 56.347656 65.699219 56.550781 65.597656 C 56.75 65.503906 57.089844 65.5 57.3125 65.597656 C 57.546875 65.695312 57.835938 65.945312 58.027344 66.3125 C 58.128906 66.492188 58.207031 66.699219 58.257812 66.917969 C 58.285156 67.023438 58.304688 67.140625 58.320312 67.253906 C 58.332031 67.371094 58.34375 67.496094 58.34375 67.621094 C 58.34375 67.679688 58.339844 67.738281 58.339844 67.796875 C 57.941406 67.554688 57.496094 67.367188 57.183594 67.171875 Z M 57.183594 67.171875 " fill-opacity="1" fill-rule="nonzero"/></g><g clip-path="url(#9e56612536)"><path fill="#ffffff" d="M 46.542969 22.023438 C 47.003906 22.074219 47.3125 21.875 47.542969 21.640625 C 47.71875 21.449219 47.855469 21.246094 47.949219 21.109375 C 48.625 20.210938 49.320312 19.511719 50.144531 18.785156 C 50.941406 18.078125 51.953125 17.449219 52.882812 16.996094 C 53.050781 16.914062 53.222656 16.832031 53.398438 16.761719 C 53.570312 16.683594 53.75 16.621094 53.925781 16.554688 C 55.230469 16.070312 56.785156 15.8125 58.234375 15.890625 C 58.28125 15.890625 58.394531 15.898438 58.554688 15.898438 C 58.636719 15.894531 58.726562 15.890625 58.820312 15.886719 C 58.914062 15.886719 59.011719 15.886719 59.113281 15.878906 C 59.3125 15.863281 59.515625 15.851562 59.679688 15.808594 C 59.847656 15.761719 59.980469 15.691406 60.03125 15.570312 C 60.148438 15.292969 60.152344 15.085938 59.953125 14.84375 C 59.855469 14.71875 59.703125 14.59375 59.480469 14.453125 C 59.375 14.378906 59.25 14.304688 59.101562 14.234375 C 58.953125 14.164062 58.792969 14.078125 58.605469 14.007812 C 57.75 13.65625 56.746094 13.410156 55.578125 13.375 C 54.996094 13.351562 54.375 13.394531 53.714844 13.488281 C 53.054688 13.582031 52.355469 13.742188 51.625 13.996094 C 50.242188 14.480469 48.925781 15.09375 47.699219 15.863281 C 46.480469 16.632812 45.367188 17.546875 44.429688 18.59375 C 44.058594 19.003906 43.515625 19.761719 44.660156 20.886719 C 45.46875 21.675781 46.085938 21.972656 46.542969 22.023438 Z M 46.542969 22.023438 " fill-opacity="1" fill-rule="nonzero"/></g><path fill="#ffffff" d="M 63.214844 27.304688 C 62.742188 27.269531 62.296875 27.464844 62.03125 28.007812 C 62.03125 28.007812 62.027344 28.035156 62.003906 28.109375 C 61.984375 28.183594 61.953125 28.304688 61.875 28.484375 C 61.800781 28.667969 61.683594 28.90625 61.46875 29.203125 C 61.257812 29.5 60.945312 29.847656 60.460938 30.207031 C 59.984375 30.5625 59.296875 30.957031 58.535156 31.25 C 57.820312 31.539062 57 31.664062 56.234375 31.65625 C 54.683594 31.664062 53.421875 31.117188 53.132812 31.542969 C 52.996094 31.75 53.203125 32.132812 53.714844 32.535156 C 54.226562 32.933594 55.050781 33.328125 56.027344 33.492188 C 56.511719 33.578125 57.03125 33.609375 57.550781 33.578125 C 59.910156 33.433594 62.269531 32.191406 63.609375 29.914062 C 64.097656 29.089844 64.3125 28.382812 64.214844 28.03125 C 64.128906 27.664062 63.675781 27.339844 63.214844 27.304688 Z M 63.214844 27.304688 " fill-opacity="1" fill-rule="nonzero"/><path fill="#ffffff" d="M 56.1875 38.054688 C 56.195312 38.027344 56.207031 37.996094 56.210938 37.964844 C 56.261719 37.605469 56.171875 36.242188 55.617188 36.261719 C 55.058594 36.285156 55.074219 37.953125 55.425781 38.214844 C 55.675781 38.402344 56.078125 38.347656 56.1875 38.054688 Z M 56.1875 38.054688 " fill-opacity="1" fill-rule="nonzero"/><path fill="#ffffff" d="M 60.707031 34.820312 C 60.492188 34.84375 60.40625 35.070312 60.425781 35.335938 C 60.449219 35.691406 60.578125 36.304688 60.902344 36.515625 C 61.25 36.753906 61.617188 36.402344 61.625 36.042969 C 61.625 36.023438 61.625 36.007812 61.625 35.992188 C 61.589844 35.65625 61.09375 34.777344 60.707031 34.820312 Z M 60.707031 34.820312 " fill-opacity="1" fill-rule="nonzero"/><path fill="#ffffff" d="M 66.050781 32.695312 C 66.003906 32.523438 65.859375 32.359375 65.761719 32.234375 C 65.617188 32.054688 65.347656 31.820312 65.074219 31.714844 C 64.542969 31.5 64.328125 31.84375 64.609375 32.324219 C 64.765625 32.585938 65.019531 32.9375 65.289062 33.070312 C 65.535156 33.199219 65.890625 33.261719 66.035156 32.9375 C 66.074219 32.859375 66.074219 32.777344 66.050781 32.695312 Z M 66.050781 32.695312 " fill-opacity="1" fill-rule="nonzero"/><path fill="#ffffff" d="M 60.003906 50.101562 C 59.816406 50.007812 59.550781 50.113281 59.125 50.546875 C 59.125 50.546875 59.066406 50.640625 58.789062 50.917969 C 58.507812 51.175781 58.003906 51.671875 56.945312 52.089844 C 56.683594 52.195312 56.375 52.285156 56.050781 52.355469 C 55.71875 52.429688 55.375 52.460938 54.96875 52.492188 C 54.570312 52.523438 54.101562 52.578125 53.675781 52.765625 C 53.25 52.949219 52.886719 53.226562 52.605469 53.519531 C 52.035156 54.117188 51.730469 54.757812 51.542969 55.214844 C 51.363281 55.683594 51.308594 55.988281 51.402344 56.039062 C 51.503906 56.089844 51.710938 55.847656 52 55.457031 C 52.289062 55.070312 52.660156 54.527344 53.152344 54.09375 C 53.398438 53.878906 53.671875 53.699219 53.964844 53.582031 C 54.253906 53.464844 54.566406 53.425781 54.917969 53.398438 C 55.257812 53.375 55.628906 53.355469 55.964844 53.296875 C 56.296875 53.242188 56.589844 53.167969 56.824219 53.089844 C 57.765625 52.785156 58.570312 52.332031 59.136719 51.875 C 59.257812 51.78125 59.363281 51.6875 59.464844 51.597656 C 59.265625 52 58.996094 52.519531 58.613281 53.023438 C 58.21875 53.554688 57.714844 54.066406 57.191406 54.441406 C 56.675781 54.824219 56.140625 55.078125 55.757812 55.226562 C 54.988281 55.53125 54.210938 55.605469 53.609375 55.585938 C 53 55.570312 52.558594 55.476562 52.335938 55.503906 C 52.113281 55.527344 51.871094 55.671875 51.832031 55.871094 C 51.792969 56.058594 51.976562 56.335938 52.660156 56.480469 C 52.660156 56.480469 52.78125 56.496094 53.21875 56.519531 C 53.652344 56.523438 54.425781 56.566406 55.640625 56.222656 C 55.941406 56.132812 56.273438 56.011719 56.613281 55.851562 C 56.953125 55.6875 57.300781 55.484375 57.628906 55.238281 C 58.292969 54.761719 58.867188 54.121094 59.269531 53.46875 C 59.675781 52.816406 59.902344 52.164062 59.988281 51.683594 C 60.046875 51.359375 60.046875 51.117188 60.011719 50.984375 C 60.078125 50.886719 60.128906 50.796875 60.15625 50.726562 C 60.242188 50.484375 60.183594 50.191406 60.003906 50.101562 Z M 60.003906 50.101562 " fill-opacity="1" fill-rule="nonzero"/><path fill="#ffffff" d="M 43.082031 61.066406 C 42.84375 60.878906 42.4375 60.523438 41.617188 60.203125 C 41.207031 60.046875 40.660156 59.925781 40.085938 59.960938 C 39.511719 59.988281 38.9375 60.167969 38.484375 60.425781 C 38.027344 60.6875 37.695312 61.03125 37.53125 61.324219 C 37.367188 61.621094 37.363281 61.859375 37.5 61.976562 C 37.640625 62.09375 37.851562 62.050781 38.101562 61.960938 C 38.359375 61.871094 38.664062 61.738281 39.003906 61.636719 C 39.34375 61.539062 39.714844 61.472656 40.046875 61.464844 C 40.378906 61.453125 40.675781 61.503906 40.890625 61.550781 C 41.316406 61.644531 41.65625 61.894531 41.882812 62.113281 C 42.113281 62.332031 42.25 62.507812 42.417969 62.523438 C 42.578125 62.539062 42.929688 62.441406 43.207031 62.253906 C 43.476562 62.070312 43.664062 61.742188 43.382812 61.324219 C 43.382812 61.328125 43.3125 61.265625 43.082031 61.066406 Z M 43.082031 61.066406 " fill-opacity="1" fill-rule="nonzero"/><g fill="#ffffff" fill-opacity="1"><g transform="translate(117.90887, 79.090882)"><g><path d="M 27.941406 -51.269531 C 22.085938 -52.246094 16.855469 -49.140625 12.863281 -45.238281 C 4.347656 -36.8125 -4.167969 -19.871094 -1.773438 -7.539062 C 0.355469 3.105469 10.554688 3.726562 18.894531 -0.175781 C 29.539062 -5.234375 39.5625 -14.902344 44.796875 -25.457031 C 46.039062 -28.03125 42.132812 -30.335938 40.890625 -27.765625 C 37.609375 -21.199219 32.554688 -15.613281 27.054688 -11 C 22.441406 -7.183594 13.835938 -0.355469 7.363281 -2.484375 C -1.953125 -5.589844 3.902344 -20.757812 6.476562 -26.878906 C 8.515625 -31.84375 11.089844 -36.632812 14.726562 -40.625 C 16.320312 -42.3125 18.007812 -43.996094 19.957031 -45.238281 C 23.0625 -47.011719 31.933594 -49.320312 30.25 -41.511719 C 29.628906 -38.761719 33.886719 -37.609375 34.503906 -40.359375 C 35.660156 -45.683594 33.53125 -50.382812 27.941406 -51.269531 Z M 27.941406 -51.269531 "/></g></g></g><g fill="#ffffff" fill-opacity="1"><g transform="translate(156.935003, 79.090882)"><g><path d="M 21.910156 -37.167969 C 16.054688 -38.851562 11.441406 -36.902344 7.628906 -33.351562 C 7.984375 -34.773438 8.425781 -36.101562 8.871094 -37.523438 C 9.667969 -40.183594 5.5 -41.335938 4.703125 -38.675781 C 2.484375 -31.578125 0.445312 -24.480469 -2.128906 -17.476562 C -2.839844 -15.878906 -3.460938 -14.371094 -3.992188 -12.949219 C -4.96875 -10.199219 -0.710938 -9.136719 0.355469 -11.796875 C 1.0625 -13.394531 1.683594 -15.078125 2.304688 -16.675781 C 5.675781 -25.015625 11.441406 -35.480469 20.667969 -32.820312 C 23.417969 -32.023438 24.660156 -36.367188 21.910156 -37.167969 Z M 21.910156 -37.167969 "/></g></g></g><g fill="#ffffff" fill-opacity="1"><g transform="translate(181.060249, 79.090882)"><g><path d="M 32.644531 -24.660156 C 30.867188 -22.707031 27.851562 -22.53125 24.835938 -23.242188 C 26.34375 -27.765625 25.371094 -32.199219 21.644531 -35.570312 C 21.023438 -36.191406 20.3125 -36.632812 19.691406 -36.902344 C 9.402344 -43.640625 -1.417969 -27.941406 0.445312 -18.273438 C 1.507812 -12.328125 6.5625 -8.425781 12.683594 -10.289062 C 16.675781 -11.441406 20.3125 -14.992188 22.707031 -18.714844 C 27.410156 -17.386719 32.644531 -18.007812 35.835938 -21.464844 C 37.789062 -23.59375 34.59375 -26.789062 32.644531 -24.660156 Z M 16.675781 -31.84375 C 19.691406 -34.859375 21.289062 -27.410156 21.113281 -26.167969 C 21.023438 -25.722656 20.933594 -25.28125 20.757812 -24.835938 C 17.121094 -26.789062 14.636719 -29.714844 16.675781 -31.84375 Z M 18.273438 -20.222656 C 16.941406 -18.449219 14.992188 -16.144531 12.949219 -15.257812 C 6.832031 -12.417969 3.992188 -18.628906 4.878906 -23.417969 C 5.589844 -27.054688 8.78125 -32.375 12.683594 -33.886719 C 12.683594 -33.886719 12.683594 -33.796875 12.683594 -33.796875 C 10.554688 -28.121094 13.660156 -23.242188 18.449219 -20.492188 C 18.363281 -20.402344 18.363281 -20.3125 18.273438 -20.222656 Z M 18.273438 -20.222656 "/></g></g></g><g fill="#ffffff" fill-opacity="1"><g transform="translate(213.966378, 79.090882)"><g><path d="M 30.957031 -35.214844 C 31.933594 -37.875 27.585938 -39.03125 26.609375 -36.367188 C 26.523438 -36.191406 26.433594 -36.015625 26.34375 -35.835938 C 20.046875 -39.652344 11.441406 -38.144531 6.121094 -33.085938 C 0.796875 -28.03125 -2.574219 -18.363281 3.8125 -12.683594 C 8.605469 -8.425781 13.039062 -8.960938 16.855469 -11.886719 C 13.484375 -3.28125 10.199219 5.410156 7.449219 14.28125 C 6.742188 16.5 9.578125 17.917969 11.175781 16.5 C 15.964844 12.0625 20.578125 7.539062 24.925781 2.75 C 26.789062 0.53125 23.683594 -2.574219 21.734375 -0.445312 C 19.425781 2.128906 17.03125 4.613281 14.546875 7.007812 C 19.25 -6.386719 24.835938 -19.425781 29.980469 -32.644531 C 30.335938 -33.617188 30.601562 -34.503906 30.957031 -35.214844 Z M 15.964844 -16.941406 C 14.191406 -15.523438 11.621094 -14.105469 9.226562 -14.726562 C 1.242188 -16.855469 5.5 -25.992188 8.515625 -29.273438 C 12.683594 -33.707031 19.605469 -35.039062 24.75 -31.757812 C 24.128906 -30.160156 23.507812 -28.652344 22.886719 -27.054688 C 21.199219 -23.242188 18.984375 -19.515625 15.964844 -16.941406 Z M 15.964844 -16.941406 "/></g></g></g><g fill="#ffffff" fill-opacity="1"><g transform="translate(246.16294, 79.090882)"><g><path d="M 31.578125 -23.507812 C 30.335938 -21.464844 24.394531 -13.925781 20.933594 -15.257812 C 17.652344 -16.675781 20.933594 -24.570312 23.507812 -29.804688 C 23.863281 -30.425781 24.128906 -31.046875 24.480469 -31.667969 C 25.101562 -32.820312 25.636719 -33.707031 25.902344 -34.152344 C 27.320312 -36.632812 23.507812 -38.851562 22 -36.367188 C 21.910156 -36.191406 21.734375 -36.015625 21.644531 -35.746094 C 21.464844 -35.570312 21.378906 -35.304688 21.199219 -35.039062 C 20.3125 -33.351562 19.070312 -31.136719 17.917969 -28.652344 C 15.347656 -23.59375 12.417969 -18.539062 7.984375 -15.964844 C 1.683594 -12.328125 2.925781 -19.78125 4.257812 -23.328125 C 5.765625 -27.054688 7.894531 -30.515625 9.492188 -34.152344 C 10.644531 -36.722656 6.832031 -39.03125 5.675781 -36.367188 C 3.191406 -30.867188 -8.515625 -12.773438 3.8125 -10.644531 C 8.25 -9.933594 11.976562 -12.328125 15.078125 -15.964844 C 15.433594 -14.015625 16.410156 -12.417969 18.273438 -11.441406 C 24.660156 -8.070312 32.554688 -16.585938 35.480469 -21.289062 C 36.902344 -23.773438 33.085938 -25.992188 31.578125 -23.507812 Z M 31.578125 -23.507812 "/></g></g></g><g fill="#ffffff" fill-opacity="1"><g transform="translate(277.738634, 79.090882)"><g><path d="M 25.636719 -27.144531 C 22.621094 -23.417969 19.425781 -19.25 15.078125 -16.855469 C 12.0625 -15.167969 8.425781 -14.902344 6.121094 -18.09375 C 5.054688 -19.515625 4.878906 -21.113281 5.144531 -22.796875 C 11.355469 -23.242188 21.199219 -27.410156 19.515625 -35.394531 C 17.917969 -43.109375 8.425781 -38.144531 5.5 -34.328125 C 0.355469 -27.675781 -2.660156 -15.523438 7.449219 -11.707031 C 16.144531 -8.339844 24.128906 -18.007812 28.738281 -24.039062 C 30.425781 -26.167969 27.5 -29.359375 25.636719 -27.144531 Z M 15.257812 -34.503906 C 16.054688 -33.351562 14.105469 -30.957031 13.394531 -30.25 C 11.53125 -28.296875 9.046875 -27.410156 6.476562 -26.964844 C 6.476562 -27.144531 6.5625 -27.320312 6.652344 -27.5 C 7.363281 -29.09375 13.039062 -38.144531 15.257812 -34.503906 Z M 15.257812 -34.503906 "/></g></g></g><g fill="#ffffff" fill-opacity="1"><g transform="translate(302.662135, 79.090882)"><g><path d="M 25.191406 -26.433594 C 21.910156 -22.175781 19.335938 -17.296875 15.523438 -13.484375 C 13.75 -11.796875 9.847656 -8.160156 7.097656 -9.046875 C 2.304688 -10.378906 4.703125 -19.957031 5.320312 -23.0625 C 6.832031 -30.25 8.960938 -37.433594 11.265625 -44.53125 C 15.964844 -44.53125 20.667969 -44.441406 25.28125 -44.441406 C 28.207031 -44.441406 28.207031 -48.875 25.28125 -48.964844 C 21.113281 -48.964844 16.941406 -48.964844 12.773438 -49.054688 C 14.726562 -54.820312 16.765625 -60.585938 18.714844 -66.261719 C 19.605469 -69.011719 15.257812 -70.164062 14.371094 -67.414062 C 12.328125 -61.292969 10.378906 -55.175781 8.425781 -49.054688 C 6.210938 -49.054688 4.082031 -49.054688 1.953125 -49.054688 C -0.976562 -49.054688 -0.976562 -44.53125 1.953125 -44.53125 C 3.636719 -44.53125 5.320312 -44.53125 7.007812 -44.53125 C 5.765625 -40.625 4.523438 -36.8125 3.371094 -32.910156 C 1.332031 -26.257812 -3.105469 -13.835938 0.886719 -7.273438 C 3.8125 -2.304688 11.53125 -4.789062 15.347656 -7.363281 C 21.378906 -11.441406 24.835938 -18.449219 29.09375 -24.214844 C 30.78125 -26.523438 26.878906 -28.738281 25.191406 -26.433594 Z M 25.191406 -26.433594 "/></g></g></g><g fill="#ffffff" fill-opacity="1"><g transform="translate(326.698683, 79.090882)"><g><path d="M 34.417969 -23.863281 C 32.730469 -20.933594 29.007812 -14.902344 25.28125 -15.789062 C 19.78125 -17.03125 22.441406 -25.636719 24.835938 -31.402344 C 25.636719 -33.085938 26.34375 -34.503906 26.789062 -35.570312 C 28.03125 -38.144531 24.214844 -40.449219 22.972656 -37.789062 C 22.621094 -37.253906 22.265625 -36.546875 21.910156 -35.746094 C 10.734375 -41.957031 -7.71875 -23.863281 2.484375 -14.105469 C 7.984375 -8.960938 13.304688 -12.773438 17.652344 -18.714844 C 17.917969 -15.523438 19.335938 -12.683594 22.53125 -11.089844 C 29.007812 -7.804688 35.660156 -16.941406 38.320312 -21.644531 C 39.738281 -24.128906 35.835938 -26.433594 34.417969 -23.863281 Z M 10.378906 -17.5625 C 4.167969 -13.304688 3.546875 -22.175781 6.121094 -26.078125 C 9.046875 -30.515625 15.078125 -34.773438 20.222656 -31.84375 C 17.742188 -26.34375 14.8125 -20.578125 10.378906 -17.5625 Z M 10.378906 -17.5625 "/></g></g></g><path fill="#ffffff" d="M 89.886719 98.304688 L 89.886719 93.824219 L 94.367188 93.824219 L 94.367188 98.304688 M 89.886719 89.34375 L 89.886719 84.863281 L 94.367188 84.863281 L 94.367188 89.34375 M 89.886719 80.382812 L 89.886719 75.902344 L 94.367188 75.902344 L 94.367188 80.382812 M 89.886719 71.425781 L 89.886719 66.945312 L 94.367188 66.945312 L 94.367188 71.425781 M 89.886719 62.464844 L 89.886719 57.984375 L 94.367188 57.984375 L 94.367188 62.464844 M 89.886719 53.503906 L 89.886719 49.023438 L 94.367188 49.023438 L 94.367188 53.503906 M 89.886719 44.542969 L 89.886719 40.0625 L 94.367188 40.0625 L 94.367188 44.542969 M 89.886719 35.582031 L 89.886719 31.101562 L 94.367188 31.101562 L 94.367188 35.582031 M 89.886719 26.625 L 89.886719 22.144531 L 94.367188 22.144531 L 94.367188 26.625 M 89.886719 17.664062 L 89.886719 13.183594 L 94.367188 13.183594 L 94.367188 17.664062 " fill-opacity="1" fill-rule="nonzero"/></svg>