<svg xmlns="http://www.w3.org/2000/svg" xmlns:xlink="http://www.w3.org/1999/xlink" width="350" zoomAndPan="magnify" viewBox="0 0 262.5 374.999991" height="500" preserveAspectRatio="xMidYMid meet" version="1.0"><path fill="#ffffff" d="M 261.402344 198.109375 C 260.121094 197.585938 258.167969 199.070312 253.433594 204.429688 C 251.035156 207.0625 247.960938 210.710938 243.496094 214.890625 C 241.253906 216.957031 238.628906 219.128906 235.472656 221.140625 C 232.328125 223.148438 228.660156 224.949219 224.277344 226.167969 C 214.277344 229.066406 202.742188 228.503906 191.628906 224.835938 C 180.480469 221.128906 169.652344 214.132812 159.429688 204.878906 C 138.949219 186.101562 119.003906 160.582031 105.511719 126.242188 C 102.242188 118.121094 99.527344 109.75 97.203125 101.277344 L 96.324219 98.101562 C 96.035156 97.035156 95.789062 95.960938 95.523438 94.894531 C 95.011719 92.753906 94.4375 90.632812 93.976562 88.472656 C 93.066406 84.179688 92 79.753906 91.464844 75.820312 C 90.902344 71.855469 90.851562 68.21875 91.578125 65.1875 C 92.296875 62.019531 93.957031 58.804688 95.472656 57.554688 C 95.839844 57.246094 96.167969 56.988281 96.464844 56.878906 C 96.609375 56.773438 96.761719 56.785156 96.886719 56.703125 C 97.039062 56.714844 97.152344 56.609375 97.304688 56.632812 C 97.378906 56.632812 97.449219 56.609375 97.53125 56.589844 L 97.992188 56.582031 C 98.300781 56.550781 98.605469 56.570312 98.894531 56.589844 C 99.488281 56.609375 100.0625 56.722656 100.644531 56.855469 C 102.941406 57.421875 105.480469 59.109375 107.917969 61.640625 C 110.359375 64.160156 112.632812 67.398438 114.710938 70.902344 C 116.800781 74.417969 118.707031 78.21875 120.652344 82.222656 L 122.140625 85.273438 L 123.480469 88.164062 C 124.402344 90.070312 125.203125 92.058594 126.042969 94.015625 C 126.890625 95.96875 127.597656 98.007812 128.386719 99.996094 C 129.125 102.015625 129.824219 104.0625 130.539062 106.101562 C 136.019531 122.566406 139.738281 140 144.265625 157.734375 C 144.71875 159.476562 145.199219 161.363281 145.753906 163.339844 C 146.039062 164.332031 146.328125 165.335938 146.613281 166.371094 C 146.765625 166.882812 146.910156 167.40625 147.0625 167.917969 L 147.1875 168.328125 L 147.371094 168.871094 L 147.730469 169.96875 C 148.222656 171.421875 148.714844 172.898438 149.207031 174.371094 L 149.585938 175.46875 C 149.726562 175.847656 149.789062 176.15625 150.066406 176.65625 C 150.535156 177.570312 151.058594 178.429688 151.703125 179.207031 C 152.953125 180.765625 154.59375 182.035156 156.398438 182.835938 C 157.296875 183.246094 158.230469 183.542969 159.195312 183.757812 C 159.664062 183.878906 160.167969 183.910156 160.667969 183.960938 C 161.160156 184.003906 161.652344 184.054688 162.144531 184.09375 C 164.070312 184.359375 166.035156 184.21875 167.851562 183.890625 C 168.34375 183.808594 168.597656 183.734375 168.9375 183.652344 C 169.242188 183.570312 169.550781 183.480469 169.859375 183.398438 C 170.453125 183.222656 171.003906 183.027344 171.527344 182.835938 C 173.648438 182.054688 175.6875 181.019531 177.265625 179.90625 C 180.480469 177.640625 182.222656 175.007812 182.398438 172.816406 C 182.621094 169.710938 181.1875 168.308594 179.253906 167.734375 C 177.285156 167.160156 174.683594 167.34375 171.671875 167.4375 C 170.914062 167.457031 170.136719 167.476562 169.335938 167.476562 C 168.515625 167.488281 167.542969 167.507812 166.804688 167.457031 C 166.292969 167.445312 166.375 167.363281 166.28125 167.3125 C 166.222656 167.253906 166.171875 167.191406 166.128906 167.128906 C 166.046875 167.007812 166.007812 166.902344 165.984375 166.792969 C 165.964844 166.6875 165.984375 166.578125 166.027344 166.503906 L 166.058594 166.453125 C 166.058594 166.421875 166.078125 166.496094 166.058594 166.382812 L 166.007812 166.117188 L 165.769531 165.050781 L 165.226562 162.765625 C 164.921875 161.546875 164.601562 160.328125 164.296875 159.128906 C 162.257812 151.433594 160.339844 144.191406 159.058594 139.367188 C 154.613281 122.523438 150.292969 106.226562 143.722656 90.347656 C 142.085938 86.382812 140.292969 82.457031 138.335938 78.574219 L 137.617188 77.121094 L 136.921875 75.769531 L 135.488281 72.992188 C 134.515625 71.117188 133.5 69.203125 132.425781 67.285156 C 130.261719 63.445312 127.886719 59.542969 124.957031 55.710938 C 122.015625 51.898438 118.542969 48.058594 113.707031 44.902344 C 111.363281 43.386719 108.667969 42.0625 105.695312 41.246094 C 102.726562 40.414062 99.5 40.117188 96.40625 40.414062 L 95.820312 40.464844 C 95.617188 40.484375 95.371094 40.539062 95.144531 40.566406 L 93.773438 40.8125 C 92.871094 41.050781 91.949219 41.285156 91.085938 41.644531 C 89.324219 42.308594 87.738281 43.273438 86.304688 44.328125 C 83.507812 46.5 81.488281 49.101562 80.023438 51.695312 C 78.558594 54.304688 77.515625 56.949219 76.785156 59.632812 C 76.417969 60.933594 76.109375 62.429688 75.894531 63.824219 C 75.699219 65.226562 75.566406 66.640625 75.527344 68.003906 C 75.34375 73.523438 76.242188 78.542969 77.226562 83.15625 C 79.265625 92.148438 81.550781 100.980469 84.265625 109.636719 C 87.019531 118.273438 90.144531 126.664062 93.578125 134.652344 C 98.585938 146.136719 104.507812 157.253906 111.339844 167.765625 C 113.511719 171.105469 115.808594 174.414062 118.203125 177.671875 C 116.894531 177.167969 115.550781 176.6875 114.1875 176.257812 C 108.164062 174.363281 101.589844 173.144531 94.816406 172.949219 C 94.53125 172.9375 94.242188 172.9375 93.957031 172.9375 C 93.238281 170.972656 92.347656 169.476562 91.28125 168.707031 C 89.46875 167.355469 88.105469 167.609375 87.101562 168.902344 C 86.375 169.84375 85.84375 171.351562 85.390625 173.234375 C 81.621094 173.574219 77.820312 174.15625 74.0625 174.964844 C 70.589844 175.695312 67.125 176.574219 63.664062 177.527344 C 62.800781 177.761719 61.933594 178.007812 61.0625 178.253906 L 59.761719 178.625 L 58.398438 179.054688 C 57.484375 179.339844 56.5625 179.636719 55.640625 179.933594 C 54.71875 180.230469 53.828125 180.609375 52.917969 180.949219 C 45.671875 183.746094 38.53125 187.496094 31.8125 192.464844 C 25.429688 197.167969 19.582031 202.738281 14.777344 209.316406 C 10.023438 215.902344 6.46875 223.667969 5.09375 232.019531 L 4.816406 233.574219 L 4.65625 235.214844 C 4.542969 236.3125 4.542969 237.40625 4.519531 238.492188 C 4.550781 240.683594 4.746094 242.855469 5.125 245.019531 C 5.546875 247.171875 6.066406 249.3125 6.878906 251.378906 C 7.226562 252.425781 7.726562 253.429688 8.167969 254.453125 C 8.699219 255.4375 9.171875 256.453125 9.796875 257.40625 C 11.660156 260.488281 14.128906 263.285156 17.070312 265.578125 C 16.886719 265.753906 16.703125 265.929688 16.496094 266.113281 C 15.207031 267.269531 13.515625 268.292969 11.9375 269.1875 C 11.355469 269.472656 10.78125 269.8125 10.175781 270.085938 C 7.972656 271.132812 5.332031 272.117188 2.789062 272.945312 C 2.492188 273.089844 0.0234375 274 0.0117188 275.363281 C 0.0351562 276.929688 0.535156 277.414062 3.199219 277.976562 C 6.242188 278.570312 10.0625 278.683594 15.164062 277.085938 C 17.582031 276.304688 20.03125 275.425781 22.386719 274.195312 C 24.171875 273.261719 25.890625 272.125 27.40625 270.734375 C 29.046875 271.183594 30.714844 271.523438 32.386719 271.707031 C 36.882812 272.207031 41.359375 271.859375 45.621094 270.816406 C 47.761719 270.3125 49.84375 269.617188 51.871094 268.765625 C 52.886719 268.355469 53.878906 267.875 54.863281 267.371094 C 55.824219 266.878906 56.695312 266.347656 57.617188 265.835938 C 64.800781 261.585938 71.058594 255.867188 76.007812 249.363281 C 80.996094 242.867188 84.859375 235.707031 87.808594 228.289062 C 90.789062 220.882812 92.851562 213.21875 94.304688 205.484375 C 94.847656 202.453125 95.390625 198.886719 95.707031 195.179688 C 96.015625 191.460938 96.117188 187.597656 95.921875 183.992188 C 95.882812 183.222656 95.820312 182.476562 95.75 181.738281 C 96.824219 181.757812 97.910156 181.808594 98.984375 181.890625 C 101.238281 182.085938 103.492188 182.332031 105.738281 182.773438 C 110.234375 183.570312 114.648438 184.933594 118.890625 186.65625 C 123.089844 188.457031 127.160156 190.621094 130.734375 193.367188 C 130.917969 193.5 131.082031 193.632812 131.257812 193.777344 C 131.800781 194.378906 132.332031 194.984375 132.875 195.578125 C 134.832031 197.832031 136.984375 199.890625 139.054688 202.054688 C 141.113281 204.214844 143.304688 206.265625 145.496094 208.332031 C 149.933594 212.421875 154.574219 216.363281 159.550781 219.949219 C 167.121094 225.441406 175.453125 230.183594 184.394531 233.308594 C 182.980469 234.980469 181.945312 236.964844 181.425781 239.015625 C 180.769531 241.628906 180.871094 244.1875 181.375 246.484375 C 181.886719 248.800781 182.808594 250.878906 184.046875 252.753906 C 184.671875 253.695312 185.359375 254.597656 186.167969 255.417969 C 186.945312 256.257812 187.886719 257.035156 188.699219 257.640625 C 190.03125 258.625 191.679688 259.585938 193.410156 260.253906 C 195.140625 260.917969 196.945312 261.316406 198.582031 261.421875 C 199.167969 261.453125 199.722656 261.441406 200.253906 261.398438 C 199.886719 262.445312 199.476562 263.460938 199.066406 264.472656 C 197.988281 266.890625 196.84375 269.246094 195.488281 271.367188 C 193.585938 274.441406 191.320312 277.238281 188.707031 279.585938 C 186.3125 281.726562 183.554688 283.539062 180.503906 284.796875 C 177.449219 286.070312 174.097656 286.753906 170.636719 286.929688 C 163.660156 287.207031 156.417969 285.394531 150.464844 282.042969 C 149.71875 281.652344 146.511719 279.851562 143.785156 277.636719 C 143.109375 277.085938 142.464844 276.511719 141.839844 275.988281 C 141.265625 275.425781 140.703125 274.933594 140.210938 274.492188 C 139.296875 273.589844 138.539062 273.046875 138.222656 273.273438 C 137.84375 273.539062 137.617188 273.910156 137.617188 274.511719 C 137.628906 275.117188 137.78125 276.007812 138.375 277.15625 C 138.664062 277.738281 139.011719 278.425781 139.523438 279.144531 C 139.78125 279.511719 140.046875 279.902344 140.332031 280.320312 C 140.640625 280.722656 141 281.132812 141.367188 281.570312 C 142.875 283.3125 144.953125 285.351562 147.902344 287.390625 C 148.867188 288.054688 149.882812 288.679688 150.925781 289.277344 C 149.296875 289.378906 147.679688 289.707031 145.988281 289.960938 C 145.035156 290.175781 144.082031 290.453125 143.109375 290.699219 C 142.628906 290.832031 142.125 290.945312 141.644531 291.109375 C 141.164062 291.285156 140.691406 291.457031 140.199219 291.640625 C 139.246094 292.019531 138.222656 292.316406 137.28125 292.800781 C 136.328125 293.261719 135.355469 293.722656 134.371094 294.191406 C 132.484375 295.257812 130.507812 296.355469 128.644531 297.707031 C 127.824219 298.269531 127.015625 298.875 126.207031 299.5 L 121.851562 297.6875 C 120.324219 297.03125 118.800781 296.363281 117.28125 295.65625 C 114.261719 294.253906 111.257812 292.757812 108.289062 291.203125 C 102.347656 288.085938 96.488281 284.707031 90.585938 281.296875 C 89.089844 280.445312 87.726562 279.59375 85.894531 278.660156 C 84.980469 278.210938 83.976562 277.761719 82.851562 277.402344 C 82.289062 277.21875 81.695312 277.074219 81.070312 276.953125 C 80.761719 276.890625 80.445312 276.839844 80.117188 276.808594 L 79.359375 276.726562 C 78.34375 276.644531 77.082031 276.5625 75.585938 276.808594 C 74.113281 277.042969 72.402344 277.730469 71.089844 278.816406 C 69.75 279.902344 68.867188 281.214844 68.285156 282.410156 C 67.957031 283.035156 67.769531 283.601562 67.546875 284.195312 C 67.359375 284.890625 67.136719 285.554688 67.0625 286.316406 C 67.042969 286.53125 67.023438 286.746094 67.003906 286.96875 C 66.601562 286.886719 66.183594 286.804688 65.761719 286.753906 C 64.851562 286.632812 63.898438 286.632812 62.964844 286.746094 C 62.023438 286.859375 61.070312 287.082031 60.128906 287.484375 C 59.207031 287.871094 58.203125 288.488281 57.433594 289.246094 C 56.644531 290.003906 56.03125 290.90625 55.609375 291.886719 C 55.191406 292.851562 54.976562 293.9375 54.933594 294.867188 C 54.894531 295.964844 55.035156 297 55.304688 297.972656 C 55.117188 297.921875 54.925781 297.878906 54.75 297.851562 C 54.21875 297.757812 53.707031 297.707031 53.203125 297.6875 C 52.199219 297.65625 51.238281 297.746094 50.253906 297.953125 C 49.996094 298.003906 49.78125 298.066406 49.496094 298.148438 C 49.207031 298.230469 48.890625 298.34375 48.59375 298.445312 C 48 298.667969 47.414062 298.957031 46.863281 299.292969 C 46.226562 299.714844 45.613281 300.175781 45.128906 300.769531 C 44.640625 301.34375 44.269531 302.03125 44.003906 302.726562 C 43.878906 303.28125 43.6875 303.832031 43.605469 304.394531 L 43.417969 306.117188 C 43.429688 307.183594 43.523438 308.136719 43.777344 309.058594 C 44.25 310.890625 45.046875 312.5 45.960938 313.820312 C 47.640625 316.320312 49.585938 318.238281 51.460938 319.976562 C 51.339844 319.988281 51.226562 319.988281 51.101562 320 L 50.285156 320.082031 L 49.832031 320.132812 L 49.1875 320.234375 C 47.476562 320.519531 45.835938 321.15625 44.578125 322.253906 C 41.984375 324.445312 41.21875 328.347656 42.488281 331.6875 C 42.640625 332.097656 42.816406 332.488281 43.019531 332.875 C 43.214844 333.253906 43.492188 333.707031 43.65625 333.953125 C 44.054688 334.535156 44.476562 335.058594 44.894531 335.519531 C 45.746094 336.453125 46.574219 337.199219 47.363281 337.84375 C 48.960938 339.175781 50.558594 340.539062 52.269531 341.746094 C 53.929688 343.039062 55.703125 344.125 57.414062 345.273438 C 58.292969 345.792969 59.175781 346.308594 60.035156 346.820312 C 60.898438 347.339844 61.769531 347.8125 62.636719 348.253906 C 65.117188 349.585938 67.660156 350.773438 70.210938 351.878906 C 79.574219 355.976562 90.390625 358.929688 100.113281 361.046875 C 101.3125 361.347656 110.632812 363.046875 110.808594 361.917969 C 111.023438 360.585938 109.242188 359.820312 100.832031 356.878906 C 96.027344 355.179688 90.800781 353.34375 84.929688 351.019531 C 81.992188 349.871094 78.925781 348.539062 75.660156 347.066406 C 72.441406 345.507812 69.019531 343.828125 65.527344 341.726562 C 62.238281 339.710938 59.023438 337.558594 56.144531 335.058594 C 55.394531 334.464844 54.699219 333.820312 54.003906 333.164062 C 53.316406 332.519531 52.578125 331.871094 51.941406 331.226562 C 51.503906 330.777344 50.039062 328.871094 51.390625 327.9375 C 53.273438 326.648438 60.222656 330.109375 64.511719 332.058594 C 67.125 333.246094 71.621094 335.714844 74.367188 333.285156 C 77.566406 330.457031 74.71875 327.304688 72.1875 325.296875 C 68.753906 322.589844 65.148438 320.121094 61.746094 317.375 L 60.242188 316.15625 C 59.707031 315.738281 59.175781 315.328125 58.644531 314.898438 C 57.609375 314.097656 56.605469 313.339844 55.640625 312.539062 C 54.144531 311.300781 52.742188 309.9375 51.839844 308.585938 C 51.183594 307.570312 50.46875 305.421875 52.085938 304.722656 C 53.5625 304.089844 54.75 304.753906 56.132812 305.308594 C 56.910156 305.625 57.699219 305.972656 58.511719 306.34375 C 60.117188 307.070312 61.769531 307.847656 63.425781 308.648438 C 66.765625 310.265625 70.238281 311.753906 73.507812 313.023438 C 74.789062 313.515625 83.589844 316.394531 81.046875 312.550781 C 80.75 312.101562 80.300781 311.566406 79.65625 310.890625 C 79.328125 310.554688 78.957031 310.195312 78.527344 309.785156 C 78.3125 309.582031 78.078125 309.363281 77.800781 309.128906 C 77.523438 308.914062 77.246094 308.6875 76.941406 308.453125 C 75.648438 307.4375 74.246094 306.414062 72.738281 305.398438 C 71.265625 304.417969 69.707031 303.382812 68.039062 302.277344 C 66.378906 301.148438 64.636719 300.042969 63.480469 298.824219 C 63.179688 298.515625 62.925781 298.207031 62.710938 297.890625 C 62.472656 297.554688 62.371094 297.328125 62.238281 297 C 61.992188 296.386719 61.929688 295.667969 62.035156 295.226562 C 62.117188 294.910156 62.300781 294.664062 62.566406 294.550781 C 62.761719 294.449219 63.398438 294.285156 64 294.347656 C 65.1875 294.417969 66.953125 295.328125 69.125 296.640625 C 72.277344 298.546875 75.503906 300.351562 78.742188 302.113281 C 81.550781 303.636719 84.890625 305.769531 88.167969 304.734375 C 92.253906 303.445312 87.164062 298.585938 85.585938 297.101562 C 82.421875 294.109375 78.003906 292.53125 76.425781 288.109375 C 76.222656 287.542969 76.191406 286.980469 76.488281 286.519531 C 77.164062 285.476562 78.988281 285.90625 79.941406 286.203125 C 81.878906 286.816406 83.703125 287.769531 85.472656 288.730469 C 86.847656 289.46875 88.21875 290.21875 89.582031 290.957031 C 95.074219 293.90625 100.613281 296.824219 106.691406 299.671875 C 109.640625 301.058594 112.703125 302.417969 115.871094 303.71875 C 119.054688 305.019531 122.230469 306.199219 125.425781 307.410156 C 131.832031 309.785156 138.304688 312.019531 144.511719 313.882812 C 148.980469 315.234375 153.496094 316.453125 158.066406 317.5 C 166.40625 319.425781 175.535156 320.777344 184.578125 320.890625 C 193.605469 321.074219 202.660156 320.5625 211.125 318.871094 C 212.15625 318.65625 216.726562 317.695312 220.753906 315.796875 C 222.761719 314.855469 224.605469 313.636719 225.703125 312.40625 C 226.828125 311.1875 227.042969 310.082031 226.789062 310.019531 C 226.082031 309.765625 225.566406 310.328125 223.386719 311.414062 C 221.203125 312.488281 217.042969 313.976562 209.710938 314.835938 C 201.308594 315.796875 191.945312 315.828125 181.300781 314.886719 C 170.738281 313.976562 158.976562 311.230469 145.515625 306.742188 C 142.042969 305.585938 138.601562 304.335938 135.171875 303.035156 C 135.332031 302.910156 135.488281 302.777344 135.640625 302.65625 L 137.628906 301.25 C 138.285156 300.769531 139 300.410156 139.6875 299.980469 C 141.050781 299.089844 142.515625 298.464844 143.9375 297.738281 C 146.859375 296.519531 149.851562 295.441406 152.902344 294.992188 C 153.28125 294.949219 154.277344 294.644531 155.585938 294.542969 C 156.242188 294.460938 156.980469 294.355469 157.75 294.253906 C 158.515625 294.132812 159.328125 294.160156 160.125 294.089844 C 160.925781 294.050781 161.722656 293.9375 162.472656 293.925781 C 162.605469 293.925781 162.726562 293.917969 162.859375 293.917969 C 166.34375 294.703125 170.105469 295.09375 174.152344 294.859375 C 175.492188 294.859375 176.855469 294.570312 178.238281 294.398438 C 178.933594 294.324219 179.621094 294.121094 180.316406 293.957031 C 181.015625 293.78125 181.710938 293.597656 182.417969 293.425781 C 183.105469 293.179688 183.800781 292.933594 184.496094 292.6875 L 185.554688 292.308594 C 185.902344 292.164062 186.230469 291.992188 186.578125 291.835938 C 187.253906 291.507812 187.949219 291.179688 188.636719 290.851562 C 189.300781 290.484375 189.957031 290.074219 190.632812 289.683594 L 191.636719 289.082031 L 192.589844 288.394531 C 193.226562 287.933594 193.882812 287.484375 194.507812 286.980469 C 195.714844 285.945312 196.984375 284.921875 198.101562 283.722656 C 199.300781 282.585938 200.335938 281.304688 201.433594 280.023438 C 202.445312 278.691406 203.492188 277.339844 204.402344 275.875 C 206.195312 273.128906 207.761719 270.261719 209.074219 267.300781 C 209.769531 265.835938 210.324219 264.308594 210.917969 262.8125 C 211.460938 261.328125 211.992188 259.792969 212.453125 258.183594 C 213.367188 254.976562 214.042969 251.433594 213.890625 247.632812 C 213.746094 244.117188 212.863281 240.5625 211.011719 237.265625 C 211.0625 237.265625 211.101562 237.265625 211.152344 237.265625 C 217.25 236.894531 223.285156 235.738281 228.867188 233.484375 C 230.25 232.980469 233.9375 231.382812 238.160156 228.523438 C 240.238281 227.082031 242.449219 225.339844 244.539062 223.339844 C 246.628906 221.355469 248.628906 219.152344 250.453125 216.898438 C 254.097656 212.398438 257.007812 207.730469 258.976562 204.226562 C 260.921875 200.699219 261.9375 198.3125 261.402344 198.109375 Z M 78.816406 213.925781 C 75.269531 227.019531 69.554688 238.707031 61.0625 247.527344 C 58.917969 249.710938 56.636719 251.707031 54.175781 253.492188 L 52.292969 254.773438 C 51.667969 255.203125 50.992188 255.558594 50.34375 255.960938 L 49.371094 256.535156 L 48.417969 257.027344 C 47.792969 257.363281 47.117188 257.621094 46.472656 257.925781 C 41.175781 260.097656 35.050781 260.878906 29.671875 259.289062 C 28.378906 258.890625 27.109375 258.417969 25.953125 257.753906 C 24.765625 257.128906 23.6875 256.320312 22.652344 255.40625 C 21.621094 254.496094 20.71875 253.410156 19.855469 252.261719 C 19.058594 251.0625 18.269531 249.824219 17.683594 248.449219 C 16.433594 245.746094 15.71875 242.703125 15.460938 239.640625 C 15.359375 238.105469 15.371094 236.558594 15.511719 235.03125 C 15.59375 234.25 15.78125 233.441406 15.890625 232.652344 C 16.054688 231.863281 16.097656 231.046875 16.34375 230.265625 C 17.890625 223.933594 21.078125 217.933594 25.203125 212.644531 C 29.324219 207.328125 34.425781 202.789062 39.792969 198.980469 C 43.636719 196.183594 47.804688 193.835938 52.097656 191.765625 C 54.226562 190.703125 56.449219 189.851562 58.652344 188.980469 L 62.011719 187.84375 C 63.160156 187.476562 64.390625 187.105469 65.570312 186.757812 C 71.621094 184.945312 77.75 183.347656 83.957031 182.445312 C 83.363281 187.320312 82.78125 192.84375 81.980469 198.078125 C 81.078125 204.316406 79.839844 210.125 78.816406 213.925781 Z M 197.691406 247.601562 C 196.15625 246.6875 195.46875 246.054688 194.925781 245.347656 C 194.035156 244.179688 193.738281 242.753906 193.832031 242.097656 C 193.933594 241.433594 194.035156 241.15625 194.917969 240.707031 C 195.785156 240.296875 197.273438 240.285156 198.257812 240.707031 C 199.28125 241.136719 200.539062 242.222656 201.390625 243.839844 C 201.820312 244.621094 202.167969 245.519531 202.394531 246.484375 C 202.519531 246.953125 202.601562 247.457031 202.660156 247.949219 C 202.710938 248.472656 202.761719 249.015625 202.761719 249.566406 C 202.761719 249.8125 202.742188 250.078125 202.742188 250.335938 C 201 249.28125 199.066406 248.449219 197.691406 247.601562 Z M 197.691406 247.601562 " fill-opacity="1" fill-rule="nonzero"/><path fill="#ffffff" d="M 151.109375 49.953125 C 153.117188 50.167969 154.480469 49.296875 155.484375 48.273438 C 156.261719 47.441406 156.847656 46.539062 157.265625 45.957031 C 160.226562 42.011719 163.261719 38.949219 166.867188 35.785156 C 170.359375 32.679688 174.785156 29.925781 178.863281 27.945312 C 179.601562 27.578125 180.347656 27.230469 181.117188 26.921875 C 181.875 26.574219 182.652344 26.308594 183.433594 26.011719 C 189.136719 23.890625 195.949219 22.761719 202.28125 23.109375 C 202.488281 23.101562 203 23.140625 203.695312 23.132812 C 204.042969 23.121094 204.445312 23.109375 204.855469 23.089844 C 205.261719 23.089844 205.695312 23.082031 206.132812 23.058594 C 207.015625 22.988281 207.894531 22.9375 208.625 22.742188 C 209.351562 22.546875 209.933594 22.230469 210.148438 21.707031 C 210.664062 20.488281 210.683594 19.585938 209.8125 18.523438 C 209.382812 17.96875 208.714844 17.425781 207.753906 16.8125 C 207.28125 16.492188 206.726562 16.164062 206.082031 15.859375 C 205.4375 15.550781 204.730469 15.160156 203.910156 14.855469 C 200.171875 13.328125 195.777344 12.242188 190.664062 12.097656 C 188.113281 11.984375 185.390625 12.171875 182.5 12.578125 C 179.609375 13 176.546875 13.707031 173.363281 14.8125 C 167.296875 16.921875 161.539062 19.609375 156.171875 22.976562 C 150.832031 26.347656 145.96875 30.355469 141.859375 34.945312 C 140.242188 36.726562 137.855469 40.046875 142.863281 44.972656 C 146.398438 48.4375 149.101562 49.738281 151.109375 49.953125 Z M 151.109375 49.953125 " fill-opacity="1" fill-rule="nonzero"/><path fill="#ffffff" d="M 224.09375 73.074219 C 222.023438 72.910156 220.066406 73.769531 218.910156 76.148438 C 218.910156 76.148438 218.886719 76.269531 218.796875 76.589844 C 218.714844 76.914062 218.570312 77.449219 218.234375 78.238281 C 217.90625 79.035156 217.382812 80.082031 216.449219 81.382812 C 215.519531 82.671875 214.15625 84.210938 212.035156 85.777344 C 209.945312 87.335938 206.945312 89.066406 203.605469 90.347656 C 200.480469 91.605469 196.894531 92.148438 193.535156 92.117188 C 186.75 92.148438 181.21875 89.761719 179.960938 91.628906 C 179.355469 92.527344 180.257812 94.207031 182.511719 95.960938 C 184.742188 97.710938 188.359375 99.433594 192.621094 100.160156 C 194.753906 100.53125 197.027344 100.671875 199.289062 100.53125 C 209.628906 99.894531 219.953125 94.464844 225.824219 84.496094 C 227.953125 80.878906 228.898438 77.785156 228.46875 76.25 C 228.089844 74.652344 226.109375 73.21875 224.09375 73.074219 Z M 224.09375 73.074219 " fill-opacity="1" fill-rule="nonzero"/><path fill="#ffffff" d="M 193.328125 120.136719 C 193.371094 120.015625 193.410156 119.882812 193.429688 119.738281 C 193.65625 118.171875 193.257812 112.199219 190.839844 112.289062 C 188.390625 112.382812 188.453125 119.6875 189.988281 120.835938 C 191.085938 121.652344 192.847656 121.417969 193.328125 120.136719 Z M 193.328125 120.136719 " fill-opacity="1" fill-rule="nonzero"/><path fill="#ffffff" d="M 213.109375 105.96875 C 212.167969 106.070312 211.800781 107.066406 211.882812 108.234375 C 211.992188 109.78125 212.558594 112.464844 213.960938 113.398438 C 215.496094 114.429688 217.105469 112.90625 217.136719 111.316406 C 217.136719 111.246094 217.136719 111.171875 217.125 111.101562 C 216.984375 109.625 214.800781 105.785156 213.109375 105.96875 Z M 213.109375 105.96875 " fill-opacity="1" fill-rule="nonzero"/><path fill="#ffffff" d="M 236.507812 96.675781 C 236.304688 95.917969 235.667969 95.191406 235.238281 94.660156 C 234.605469 93.859375 233.425781 92.847656 232.238281 92.375 C 229.910156 91.441406 228.960938 92.949219 230.199219 95.046875 C 230.875 96.1875 231.992188 97.722656 233.167969 98.316406 C 234.253906 98.871094 235.800781 99.15625 236.4375 97.734375 C 236.613281 97.382812 236.613281 97.027344 236.507812 96.675781 Z M 236.507812 96.675781 " fill-opacity="1" fill-rule="nonzero"/><path fill="#ffffff" d="M 210.039062 172.867188 C 209.21875 172.457031 208.058594 172.929688 206.195312 174.824219 C 206.195312 174.824219 205.929688 175.234375 204.71875 176.441406 C 203.480469 177.578125 201.277344 179.75 196.648438 181.574219 C 195.5 182.035156 194.160156 182.425781 192.722656 182.730469 C 191.269531 183.058594 189.773438 183.191406 187.992188 183.324219 C 186.25 183.46875 184.199219 183.714844 182.324219 184.535156 C 180.472656 185.335938 178.882812 186.542969 177.644531 187.832031 C 175.15625 190.445312 173.824219 193.253906 172.992188 195.261719 C 172.203125 197.300781 171.96875 198.640625 172.386719 198.855469 C 172.820312 199.082031 173.730469 198.015625 174.992188 196.304688 C 176.261719 194.625 177.890625 192.238281 180.042969 190.34375 C 181.117188 189.402344 182.316406 188.613281 183.597656 188.109375 C 184.855469 187.597656 186.238281 187.414062 187.765625 187.300781 C 189.261719 187.199219 190.890625 187.117188 192.355469 186.859375 C 193.808594 186.613281 195.089844 186.285156 196.113281 185.949219 C 200.242188 184.617188 203.757812 182.640625 206.246094 180.632812 C 206.769531 180.222656 207.230469 179.8125 207.671875 179.414062 C 206.800781 181.175781 205.632812 183.449219 203.941406 185.660156 C 202.21875 187.988281 200.007812 190.21875 197.722656 191.871094 C 195.460938 193.550781 193.125 194.65625 191.453125 195.3125 C 188.082031 196.644531 184.683594 196.960938 182.039062 196.871094 C 179.375 196.808594 177.449219 196.398438 176.464844 196.511719 C 175.492188 196.613281 174.4375 197.257812 174.261719 198.121094 C 174.097656 198.9375 174.898438 200.167969 177.878906 200.792969 C 177.878906 200.792969 178.421875 200.863281 180.339844 200.957031 C 182.234375 200.976562 185.613281 201.171875 190.929688 199.667969 C 192.253906 199.277344 193.695312 198.734375 195.191406 198.039062 C 196.679688 197.320312 198.195312 196.429688 199.640625 195.363281 C 202.539062 193.261719 205.058594 190.457031 206.820312 187.609375 C 208.59375 184.761719 209.585938 181.902344 209.964844 179.792969 C 210.222656 178.378906 210.222656 177.3125 210.066406 176.738281 C 210.363281 176.308594 210.582031 175.917969 210.703125 175.613281 C 211.082031 174.546875 210.816406 173.253906 210.039062 172.867188 Z M 210.039062 172.867188 " fill-opacity="1" fill-rule="nonzero"/><path fill="#ffffff" d="M 135.957031 220.871094 C 134.914062 220.042969 133.140625 218.484375 129.546875 217.082031 C 127.753906 216.40625 125.355469 215.882812 122.835938 216.035156 C 120.324219 216.148438 117.816406 216.929688 115.828125 218.066406 C 113.832031 219.203125 112.375 220.707031 111.660156 222 C 110.941406 223.300781 110.921875 224.34375 111.515625 224.847656 C 112.128906 225.371094 113.050781 225.175781 114.160156 224.785156 C 115.273438 224.398438 116.617188 223.800781 118.113281 223.371094 C 119.597656 222.929688 121.21875 222.644531 122.671875 222.613281 C 124.125 222.5625 125.425781 222.777344 126.359375 222.984375 C 128.234375 223.390625 129.71875 224.5 130.703125 225.453125 C 131.71875 226.40625 132.320312 227.183594 133.050781 227.253906 C 133.757812 227.316406 135.292969 226.886719 136.5 226.066406 C 137.679688 225.265625 138.507812 223.824219 137.28125 222 C 137.28125 222.007812 136.972656 221.742188 135.957031 220.871094 Z M 135.957031 220.871094 " fill-opacity="1" fill-rule="nonzero"/></svg>